<svg xmlns="http://www.w3.org/2000/svg" viewBox="0 0 1640 520" width="820" role="img" aria-label="convoy">
<title>convoy</title>
<defs>
<linearGradient id="wm" gradientUnits="userSpaceOnUse" x1="213" y1="0" x2="1427" y2="0">
<stop offset="0" stop-color="#7AA2F7"/>
<stop offset="1" stop-color="#73DACA"/>
</linearGradient>
</defs>
<rect x="10" y="26" width="1620" height="468" rx="18" fill="#0B0D12" stroke="#26324B" stroke-width="2.5"/>
<rect x="50" y="8" width="156" height="36" rx="8" fill="#0B0D12"/>
<text x="64" y="27" font-family="ui-monospace, 'SF Mono', SFMono-Regular, Menlo, Consolas, 'DejaVu Sans Mono', monospace" font-size="26" fill="#7AA2F7" dominant-baseline="central" textLength="16" lengthAdjust="spacingAndGlyphs">◆</text>
<text x="96" y="27" font-family="ui-monospace, 'SF Mono', SFMono-Regular, Menlo, Consolas, 'DejaVu Sans Mono', monospace" font-size="26" font-weight="bold" fill="#7AA2F7" dominant-baseline="central" textLength="96" lengthAdjust="spacingAndGlyphs">convoy</text>
<g><g opacity="0.45"><rect x="247" y="104" width="146" height="44" rx="6" fill="none" stroke="url(#wm)" stroke-width="2.5"/><rect x="250" y="107" width="140" height="38" fill="#0B0D12"/><rect x="233" y="138" width="44" height="162" rx="6" fill="none" stroke="url(#wm)" stroke-width="2.5"/><rect x="236" y="141" width="38" height="156" fill="#0B0D12"/><rect x="255" y="290" width="152" height="44" rx="6" fill="none" stroke="url(#wm)" stroke-width="2.5"/><rect x="258" y="293" width="146" height="38" fill="#0B0D12"/></g><g opacity="0.8"><rect x="237" y="94" width="146" height="44" rx="6" fill="none" stroke="url(#wm)" stroke-width="2.5"/><rect x="240" y="97" width="140" height="38" fill="#0B0D12"/><rect x="223" y="128" width="44" height="162" rx="6" fill="none" stroke="url(#wm)" stroke-width="2.5"/><rect x="226" y="131" width="38" height="156" fill="#0B0D12"/><rect x="245" y="280" width="152" height="44" rx="6" fill="none" stroke="url(#wm)" stroke-width="2.5"/><rect x="248" y="283" width="146" height="38" fill="#0B0D12"/></g><rect x="227" y="84" width="146" height="44" rx="6" fill="url(#wm)"/><rect x="254.95" y="84" width="2.5" height="44" fill="#0B0D12" opacity="0.5"/><rect x="284.15" y="84" width="2.5" height="44" fill="#0B0D12" opacity="0.5"/><rect x="313.35" y="84" width="2.5" height="44" fill="#0B0D12" opacity="0.5"/><rect x="342.55" y="84" width="2.5" height="44" fill="#0B0D12" opacity="0.5"/><rect x="213" y="118" width="44" height="162" rx="6" fill="url(#wm)"/><rect x="213" y="157.25" width="44" height="2.5" fill="#0B0D12" opacity="0.5"/><rect x="213" y="197.75" width="44" height="2.5" fill="#0B0D12" opacity="0.5"/><rect x="213" y="238.25" width="44" height="2.5" fill="#0B0D12" opacity="0.5"/><rect x="235" y="270" width="152" height="44" rx="6" fill="url(#wm)"/><rect x="264.15" y="270" width="2.5" height="44" fill="#0B0D12" opacity="0.5"/><rect x="294.55" y="270" width="2.5" height="44" fill="#0B0D12" opacity="0.5"/><rect x="324.95" y="270" width="2.5" height="44" fill="#0B0D12" opacity="0.5"/><rect x="355.35" y="270" width="2.5" height="44" fill="#0B0D12" opacity="0.5"/></g>
<g><g opacity="0.45"><rect x="455" y="104" width="146" height="44" rx="6" fill="none" stroke="url(#wm)" stroke-width="2.5"/><rect x="458" y="107" width="140" height="38" fill="#0B0D12"/><rect x="441" y="138" width="44" height="162" rx="6" fill="none" stroke="url(#wm)" stroke-width="2.5"/><rect x="444" y="141" width="38" height="156" fill="#0B0D12"/><rect x="557" y="138" width="44" height="162" rx="6" fill="none" stroke="url(#wm)" stroke-width="2.5"/><rect x="560" y="141" width="38" height="156" fill="#0B0D12"/><rect x="455" y="290" width="146" height="44" rx="6" fill="none" stroke="url(#wm)" stroke-width="2.5"/><rect x="458" y="293" width="140" height="38" fill="#0B0D12"/></g><g opacity="0.8"><rect x="445" y="94" width="146" height="44" rx="6" fill="none" stroke="url(#wm)" stroke-width="2.5"/><rect x="448" y="97" width="140" height="38" fill="#0B0D12"/><rect x="431" y="128" width="44" height="162" rx="6" fill="none" stroke="url(#wm)" stroke-width="2.5"/><rect x="434" y="131" width="38" height="156" fill="#0B0D12"/><rect x="547" y="128" width="44" height="162" rx="6" fill="none" stroke="url(#wm)" stroke-width="2.5"/><rect x="550" y="131" width="38" height="156" fill="#0B0D12"/><rect x="445" y="280" width="146" height="44" rx="6" fill="none" stroke="url(#wm)" stroke-width="2.5"/><rect x="448" y="283" width="140" height="38" fill="#0B0D12"/></g><rect x="435" y="84" width="146" height="44" rx="6" fill="url(#wm)"/><rect x="462.95" y="84" width="2.5" height="44" fill="#0B0D12" opacity="0.5"/><rect x="492.15" y="84" width="2.5" height="44" fill="#0B0D12" opacity="0.5"/><rect x="521.35" y="84" width="2.5" height="44" fill="#0B0D12" opacity="0.5"/><rect x="550.55" y="84" width="2.5" height="44" fill="#0B0D12" opacity="0.5"/><rect x="421" y="118" width="44" height="162" rx="6" fill="url(#wm)"/><rect x="421" y="157.25" width="44" height="2.5" fill="#0B0D12" opacity="0.5"/><rect x="421" y="197.75" width="44" height="2.5" fill="#0B0D12" opacity="0.5"/><rect x="421" y="238.25" width="44" height="2.5" fill="#0B0D12" opacity="0.5"/><rect x="537" y="118" width="44" height="162" rx="6" fill="url(#wm)"/><rect x="537" y="157.25" width="44" height="2.5" fill="#0B0D12" opacity="0.5"/><rect x="537" y="197.75" width="44" height="2.5" fill="#0B0D12" opacity="0.5"/><rect x="537" y="238.25" width="44" height="2.5" fill="#0B0D12" opacity="0.5"/><rect x="435" y="270" width="146" height="44" rx="6" fill="url(#wm)"/><rect x="462.95" y="270" width="2.5" height="44" fill="#0B0D12" opacity="0.5"/><rect x="492.15" y="270" width="2.5" height="44" fill="#0B0D12" opacity="0.5"/><rect x="521.35" y="270" width="2.5" height="44" fill="#0B0D12" opacity="0.5"/><rect x="550.55" y="270" width="2.5" height="44" fill="#0B0D12" opacity="0.5"/></g>
<g><g opacity="0.45"><rect x="649" y="104" width="44" height="230" rx="6" fill="none" stroke="url(#wm)" stroke-width="2.5"/><rect x="652" y="107" width="38" height="224" fill="#0B0D12"/><rect x="765" y="104" width="44" height="230" rx="6" fill="none" stroke="url(#wm)" stroke-width="2.5"/><rect x="768" y="107" width="38" height="224" fill="#0B0D12"/><rect x="689" y="132" width="28" height="74" rx="6" fill="none" stroke="url(#wm)" stroke-width="2.5"/><rect x="692" y="135" width="22" height="68" fill="#0B0D12"/><rect x="713" y="200" width="28" height="74" rx="6" fill="none" stroke="url(#wm)" stroke-width="2.5"/><rect x="716" y="203" width="22" height="68" fill="#0B0D12"/><rect x="737" y="268" width="32" height="66" rx="6" fill="none" stroke="url(#wm)" stroke-width="2.5"/><rect x="740" y="271" width="26" height="60" fill="#0B0D12"/></g><g opacity="0.8"><rect x="639" y="94" width="44" height="230" rx="6" fill="none" stroke="url(#wm)" stroke-width="2.5"/><rect x="642" y="97" width="38" height="224" fill="#0B0D12"/><rect x="755" y="94" width="44" height="230" rx="6" fill="none" stroke="url(#wm)" stroke-width="2.5"/><rect x="758" y="97" width="38" height="224" fill="#0B0D12"/><rect x="679" y="122" width="28" height="74" rx="6" fill="none" stroke="url(#wm)" stroke-width="2.5"/><rect x="682" y="125" width="22" height="68" fill="#0B0D12"/><rect x="703" y="190" width="28" height="74" rx="6" fill="none" stroke="url(#wm)" stroke-width="2.5"/><rect x="706" y="193" width="22" height="68" fill="#0B0D12"/><rect x="727" y="258" width="32" height="66" rx="6" fill="none" stroke="url(#wm)" stroke-width="2.5"/><rect x="730" y="261" width="26" height="60" fill="#0B0D12"/></g><rect x="629" y="84" width="44" height="230" rx="6" fill="url(#wm)"/><rect x="629" y="121.08" width="44" height="2.5" fill="#0B0D12" opacity="0.5"/><rect x="629" y="159.42" width="44" height="2.5" fill="#0B0D12" opacity="0.5"/><rect x="629" y="197.75" width="44" height="2.5" fill="#0B0D12" opacity="0.5"/><rect x="629" y="236.08" width="44" height="2.5" fill="#0B0D12" opacity="0.5"/><rect x="629" y="274.42" width="44" height="2.5" fill="#0B0D12" opacity="0.5"/><rect x="745" y="84" width="44" height="230" rx="6" fill="url(#wm)"/><rect x="745" y="121.08" width="44" height="2.5" fill="#0B0D12" opacity="0.5"/><rect x="745" y="159.42" width="44" height="2.5" fill="#0B0D12" opacity="0.5"/><rect x="745" y="197.75" width="44" height="2.5" fill="#0B0D12" opacity="0.5"/><rect x="745" y="236.08" width="44" height="2.5" fill="#0B0D12" opacity="0.5"/><rect x="745" y="274.42" width="44" height="2.5" fill="#0B0D12" opacity="0.5"/><rect x="669" y="112" width="28" height="74" rx="6" fill="url(#wm)"/><rect x="669" y="147.75" width="28" height="2.5" fill="#0B0D12" opacity="0.5"/><rect x="693" y="180" width="28" height="74" rx="6" fill="url(#wm)"/><rect x="693" y="215.75" width="28" height="2.5" fill="#0B0D12" opacity="0.5"/><rect x="717" y="248" width="32" height="66" rx="6" fill="url(#wm)"/><rect x="717" y="279.75" width="32" height="2.5" fill="#0B0D12" opacity="0.5"/></g>
<g><g opacity="0.45"><rect x="857" y="104" width="44" height="150" rx="6" fill="none" stroke="url(#wm)" stroke-width="2.5"/><rect x="860" y="107" width="38" height="144" fill="#0B0D12"/><rect x="973" y="104" width="44" height="150" rx="6" fill="none" stroke="url(#wm)" stroke-width="2.5"/><rect x="976" y="107" width="38" height="144" fill="#0B0D12"/><rect x="893" y="248" width="40" height="48" rx="6" fill="none" stroke="url(#wm)" stroke-width="2.5"/><rect x="896" y="251" width="34" height="42" fill="#0B0D12"/><rect x="941" y="248" width="40" height="48" rx="6" fill="none" stroke="url(#wm)" stroke-width="2.5"/><rect x="944" y="251" width="34" height="42" fill="#0B0D12"/><rect x="913" y="290" width="48" height="44" rx="6" fill="none" stroke="url(#wm)" stroke-width="2.5"/><rect x="916" y="293" width="42" height="38" fill="#0B0D12"/></g><g opacity="0.8"><rect x="847" y="94" width="44" height="150" rx="6" fill="none" stroke="url(#wm)" stroke-width="2.5"/><rect x="850" y="97" width="38" height="144" fill="#0B0D12"/><rect x="963" y="94" width="44" height="150" rx="6" fill="none" stroke="url(#wm)" stroke-width="2.5"/><rect x="966" y="97" width="38" height="144" fill="#0B0D12"/><rect x="883" y="238" width="40" height="48" rx="6" fill="none" stroke="url(#wm)" stroke-width="2.5"/><rect x="886" y="241" width="34" height="42" fill="#0B0D12"/><rect x="931" y="238" width="40" height="48" rx="6" fill="none" stroke="url(#wm)" stroke-width="2.5"/><rect x="934" y="241" width="34" height="42" fill="#0B0D12"/><rect x="903" y="280" width="48" height="44" rx="6" fill="none" stroke="url(#wm)" stroke-width="2.5"/><rect x="906" y="283" width="42" height="38" fill="#0B0D12"/></g><rect x="837" y="84" width="44" height="150" rx="6" fill="url(#wm)"/><rect x="837" y="120.25" width="44" height="2.5" fill="#0B0D12" opacity="0.5"/><rect x="837" y="157.75" width="44" height="2.5" fill="#0B0D12" opacity="0.5"/><rect x="837" y="195.25" width="44" height="2.5" fill="#0B0D12" opacity="0.5"/><rect x="953" y="84" width="44" height="150" rx="6" fill="url(#wm)"/><rect x="953" y="120.25" width="44" height="2.5" fill="#0B0D12" opacity="0.5"/><rect x="953" y="157.75" width="44" height="2.5" fill="#0B0D12" opacity="0.5"/><rect x="953" y="195.25" width="44" height="2.5" fill="#0B0D12" opacity="0.5"/><rect x="873" y="228" width="40" height="48" rx="6" fill="url(#wm)"/><rect x="921" y="228" width="40" height="48" rx="6" fill="url(#wm)"/><rect x="893" y="270" width="48" height="44" rx="6" fill="url(#wm)"/></g>
<g><g opacity="0.45"><rect x="1079" y="104" width="146" height="44" rx="6" fill="none" stroke="url(#wm)" stroke-width="2.5"/><rect x="1082" y="107" width="140" height="38" fill="#0B0D12"/><rect x="1065" y="138" width="44" height="162" rx="6" fill="none" stroke="url(#wm)" stroke-width="2.5"/><rect x="1068" y="141" width="38" height="156" fill="#0B0D12"/><rect x="1181" y="138" width="44" height="162" rx="6" fill="none" stroke="url(#wm)" stroke-width="2.5"/><rect x="1184" y="141" width="38" height="156" fill="#0B0D12"/><rect x="1079" y="290" width="146" height="44" rx="6" fill="none" stroke="url(#wm)" stroke-width="2.5"/><rect x="1082" y="293" width="140" height="38" fill="#0B0D12"/></g><g opacity="0.8"><rect x="1069" y="94" width="146" height="44" rx="6" fill="none" stroke="url(#wm)" stroke-width="2.5"/><rect x="1072" y="97" width="140" height="38" fill="#0B0D12"/><rect x="1055" y="128" width="44" height="162" rx="6" fill="none" stroke="url(#wm)" stroke-width="2.5"/><rect x="1058" y="131" width="38" height="156" fill="#0B0D12"/><rect x="1171" y="128" width="44" height="162" rx="6" fill="none" stroke="url(#wm)" stroke-width="2.5"/><rect x="1174" y="131" width="38" height="156" fill="#0B0D12"/><rect x="1069" y="280" width="146" height="44" rx="6" fill="none" stroke="url(#wm)" stroke-width="2.5"/><rect x="1072" y="283" width="140" height="38" fill="#0B0D12"/></g><rect x="1059" y="84" width="146" height="44" rx="6" fill="url(#wm)"/><rect x="1086.95" y="84" width="2.5" height="44" fill="#0B0D12" opacity="0.5"/><rect x="1116.15" y="84" width="2.5" height="44" fill="#0B0D12" opacity="0.5"/><rect x="1145.35" y="84" width="2.5" height="44" fill="#0B0D12" opacity="0.5"/><rect x="1174.55" y="84" width="2.5" height="44" fill="#0B0D12" opacity="0.5"/><rect x="1045" y="118" width="44" height="162" rx="6" fill="url(#wm)"/><rect x="1045" y="157.25" width="44" height="2.5" fill="#0B0D12" opacity="0.5"/><rect x="1045" y="197.75" width="44" height="2.5" fill="#0B0D12" opacity="0.5"/><rect x="1045" y="238.25" width="44" height="2.5" fill="#0B0D12" opacity="0.5"/><rect x="1161" y="118" width="44" height="162" rx="6" fill="url(#wm)"/><rect x="1161" y="157.25" width="44" height="2.5" fill="#0B0D12" opacity="0.5"/><rect x="1161" y="197.75" width="44" height="2.5" fill="#0B0D12" opacity="0.5"/><rect x="1161" y="238.25" width="44" height="2.5" fill="#0B0D12" opacity="0.5"/><rect x="1059" y="270" width="146" height="44" rx="6" fill="url(#wm)"/><rect x="1086.95" y="270" width="2.5" height="44" fill="#0B0D12" opacity="0.5"/><rect x="1116.15" y="270" width="2.5" height="44" fill="#0B0D12" opacity="0.5"/><rect x="1145.35" y="270" width="2.5" height="44" fill="#0B0D12" opacity="0.5"/><rect x="1174.55" y="270" width="2.5" height="44" fill="#0B0D12" opacity="0.5"/></g>
<g><g opacity="0.45"><rect x="1273" y="104" width="44" height="110" rx="6" fill="none" stroke="url(#wm)" stroke-width="2.5"/><rect x="1276" y="107" width="38" height="104" fill="#0B0D12"/><rect x="1389" y="104" width="44" height="110" rx="6" fill="none" stroke="url(#wm)" stroke-width="2.5"/><rect x="1392" y="107" width="38" height="104" fill="#0B0D12"/><rect x="1309" y="208" width="36" height="42" rx="6" fill="none" stroke="url(#wm)" stroke-width="2.5"/><rect x="1312" y="211" width="30" height="36" fill="#0B0D12"/><rect x="1361" y="208" width="36" height="42" rx="6" fill="none" stroke="url(#wm)" stroke-width="2.5"/><rect x="1364" y="211" width="30" height="36" fill="#0B0D12"/><rect x="1331" y="244" width="44" height="90" rx="6" fill="none" stroke="url(#wm)" stroke-width="2.5"/><rect x="1334" y="247" width="38" height="84" fill="#0B0D12"/></g><g opacity="0.8"><rect x="1263" y="94" width="44" height="110" rx="6" fill="none" stroke="url(#wm)" stroke-width="2.5"/><rect x="1266" y="97" width="38" height="104" fill="#0B0D12"/><rect x="1379" y="94" width="44" height="110" rx="6" fill="none" stroke="url(#wm)" stroke-width="2.5"/><rect x="1382" y="97" width="38" height="104" fill="#0B0D12"/><rect x="1299" y="198" width="36" height="42" rx="6" fill="none" stroke="url(#wm)" stroke-width="2.5"/><rect x="1302" y="201" width="30" height="36" fill="#0B0D12"/><rect x="1351" y="198" width="36" height="42" rx="6" fill="none" stroke="url(#wm)" stroke-width="2.5"/><rect x="1354" y="201" width="30" height="36" fill="#0B0D12"/><rect x="1321" y="234" width="44" height="90" rx="6" fill="none" stroke="url(#wm)" stroke-width="2.5"/><rect x="1324" y="237" width="38" height="84" fill="#0B0D12"/></g><rect x="1253" y="84" width="44" height="110" rx="6" fill="url(#wm)"/><rect x="1253" y="119.42" width="44" height="2.5" fill="#0B0D12" opacity="0.5"/><rect x="1253" y="156.08" width="44" height="2.5" fill="#0B0D12" opacity="0.5"/><rect x="1369" y="84" width="44" height="110" rx="6" fill="url(#wm)"/><rect x="1369" y="119.42" width="44" height="2.5" fill="#0B0D12" opacity="0.5"/><rect x="1369" y="156.08" width="44" height="2.5" fill="#0B0D12" opacity="0.5"/><rect x="1289" y="188" width="36" height="42" rx="6" fill="url(#wm)"/><rect x="1341" y="188" width="36" height="42" rx="6" fill="url(#wm)"/><rect x="1311" y="224" width="44" height="90" rx="6" fill="url(#wm)"/><rect x="1311" y="252.75" width="44" height="2.5" fill="#0B0D12" opacity="0.5"/><rect x="1311" y="282.75" width="44" height="2.5" fill="#0B0D12" opacity="0.5"/></g>
<text x="213" y="398" font-family="ui-monospace, 'SF Mono', SFMono-Regular, Menlo, Consolas, 'DejaVu Sans Mono', monospace" font-size="28" fill="#9ECE6A" dominant-baseline="central" textLength="17" lengthAdjust="spacingAndGlyphs">✓</text>
<text x="247" y="398" font-family="ui-monospace, 'SF Mono', SFMono-Regular, Menlo, Consolas, 'DejaVu Sans Mono', monospace" font-size="28" fill="#C0CAF5" dominant-baseline="central" textLength="85" lengthAdjust="spacingAndGlyphs">scope</text>
<text x="349" y="398" font-family="ui-monospace, 'SF Mono', SFMono-Regular, Menlo, Consolas, 'DejaVu Sans Mono', monospace" font-size="28" fill="#3B4261" dominant-baseline="central" textLength="17" lengthAdjust="spacingAndGlyphs">·</text>
<text x="383" y="398" font-family="ui-monospace, 'SF Mono', SFMono-Regular, Menlo, Consolas, 'DejaVu Sans Mono', monospace" font-size="28" fill="#9ECE6A" dominant-baseline="central" textLength="17" lengthAdjust="spacingAndGlyphs">✓</text>
<text x="417" y="398" font-family="ui-monospace, 'SF Mono', SFMono-Regular, Menlo, Consolas, 'DejaVu Sans Mono', monospace" font-size="28" fill="#C0CAF5" dominant-baseline="central" textLength="153" lengthAdjust="spacingAndGlyphs">implement</text>
<text x="587" y="398" font-family="ui-monospace, 'SF Mono', SFMono-Regular, Menlo, Consolas, 'DejaVu Sans Mono', monospace" font-size="28" fill="#3B4261" dominant-baseline="central" textLength="17" lengthAdjust="spacingAndGlyphs">·</text>
<g><text x="621" y="398" font-family="ui-monospace, 'SF Mono', SFMono-Regular, Menlo, Consolas, 'DejaVu Sans Mono', monospace" font-size="28" fill="#7AA2F7" dominant-baseline="central" opacity="0" textLength="17" lengthAdjust="spacingAndGlyphs">⠋<animate attributeName="opacity" dur="1s" repeatCount="indefinite" calcMode="discrete" values="1;0" keyTimes="0;0.10"/></text><text x="621" y="398" font-family="ui-monospace, 'SF Mono', SFMono-Regular, Menlo, Consolas, 'DejaVu Sans Mono', monospace" font-size="28" fill="#7AA2F7" dominant-baseline="central" opacity="0" textLength="17" lengthAdjust="spacingAndGlyphs">⠙<animate attributeName="opacity" dur="1s" repeatCount="indefinite" calcMode="discrete" values="0;1;0" keyTimes="0;0.10;0.20"/></text><text x="621" y="398" font-family="ui-monospace, 'SF Mono', SFMono-Regular, Menlo, Consolas, 'DejaVu Sans Mono', monospace" font-size="28" fill="#7AA2F7" dominant-baseline="central" opacity="1" textLength="17" lengthAdjust="spacingAndGlyphs">⠹<animate attributeName="opacity" dur="1s" repeatCount="indefinite" calcMode="discrete" values="0;1;0" keyTimes="0;0.20;0.30"/></text><text x="621" y="398" font-family="ui-monospace, 'SF Mono', SFMono-Regular, Menlo, Consolas, 'DejaVu Sans Mono', monospace" font-size="28" fill="#7AA2F7" dominant-baseline="central" opacity="0" textLength="17" lengthAdjust="spacingAndGlyphs">⠸<animate attributeName="opacity" dur="1s" repeatCount="indefinite" calcMode="discrete" values="0;1;0" keyTimes="0;0.30;0.40"/></text><text x="621" y="398" font-family="ui-monospace, 'SF Mono', SFMono-Regular, Menlo, Consolas, 'DejaVu Sans Mono', monospace" font-size="28" fill="#7AA2F7" dominant-baseline="central" opacity="0" textLength="17" lengthAdjust="spacingAndGlyphs">⠼<animate attributeName="opacity" dur="1s" repeatCount="indefinite" calcMode="discrete" values="0;1;0" keyTimes="0;0.40;0.50"/></text><text x="621" y="398" font-family="ui-monospace, 'SF Mono', SFMono-Regular, Menlo, Consolas, 'DejaVu Sans Mono', monospace" font-size="28" fill="#7AA2F7" dominant-baseline="central" opacity="0" textLength="17" lengthAdjust="spacingAndGlyphs">⠴<animate attributeName="opacity" dur="1s" repeatCount="indefinite" calcMode="discrete" values="0;1;0" keyTimes="0;0.50;0.60"/></text><text x="621" y="398" font-family="ui-monospace, 'SF Mono', SFMono-Regular, Menlo, Consolas, 'DejaVu Sans Mono', monospace" font-size="28" fill="#7AA2F7" dominant-baseline="central" opacity="0" textLength="17" lengthAdjust="spacingAndGlyphs">⠦<animate attributeName="opacity" dur="1s" repeatCount="indefinite" calcMode="discrete" values="0;1;0" keyTimes="0;0.60;0.70"/></text><text x="621" y="398" font-family="ui-monospace, 'SF Mono', SFMono-Regular, Menlo, Consolas, 'DejaVu Sans Mono', monospace" font-size="28" fill="#7AA2F7" dominant-baseline="central" opacity="0" textLength="17" lengthAdjust="spacingAndGlyphs">⠧<animate attributeName="opacity" dur="1s" repeatCount="indefinite" calcMode="discrete" values="0;1;0" keyTimes="0;0.70;0.80"/></text><text x="621" y="398" font-family="ui-monospace, 'SF Mono', SFMono-Regular, Menlo, Consolas, 'DejaVu Sans Mono', monospace" font-size="28" fill="#7AA2F7" dominant-baseline="central" opacity="0" textLength="17" lengthAdjust="spacingAndGlyphs">⠇<animate attributeName="opacity" dur="1s" repeatCount="indefinite" calcMode="discrete" values="0;1;0" keyTimes="0;0.80;0.90"/></text><text x="621" y="398" font-family="ui-monospace, 'SF Mono', SFMono-Regular, Menlo, Consolas, 'DejaVu Sans Mono', monospace" font-size="28" fill="#7AA2F7" dominant-baseline="central" opacity="0" textLength="17" lengthAdjust="spacingAndGlyphs">⠏<animate attributeName="opacity" dur="1s" repeatCount="indefinite" calcMode="discrete" values="0;1" keyTimes="0;0.90"/></text></g>
<text x="655" y="398" font-family="ui-monospace, 'SF Mono', SFMono-Regular, Menlo, Consolas, 'DejaVu Sans Mono', monospace" font-size="28" fill="#7AA2F7" font-weight="bold" dominant-baseline="central" textLength="102" lengthAdjust="spacingAndGlyphs">review</text>
<text x="774" y="398" font-family="ui-monospace, 'SF Mono', SFMono-Regular, Menlo, Consolas, 'DejaVu Sans Mono', monospace" font-size="28" fill="#3B4261" dominant-baseline="central" textLength="17" lengthAdjust="spacingAndGlyphs">·</text>
<text x="808" y="398" font-family="ui-monospace, 'SF Mono', SFMono-Regular, Menlo, Consolas, 'DejaVu Sans Mono', monospace" font-size="28" fill="#565F89" dominant-baseline="central" textLength="17" lengthAdjust="spacingAndGlyphs">○</text>
<text x="842" y="398" font-family="ui-monospace, 'SF Mono', SFMono-Regular, Menlo, Consolas, 'DejaVu Sans Mono', monospace" font-size="28" fill="#565F89" dominant-baseline="central" textLength="102" lengthAdjust="spacingAndGlyphs">report</text>
<text x="213" y="454" font-family="ui-monospace, 'SF Mono', SFMono-Regular, Menlo, Consolas, 'DejaVu Sans Mono', monospace" font-size="28" fill="#565F89" dominant-baseline="central" textLength="51" lengthAdjust="spacingAndGlyphs">GPT</text>
<rect x="281" y="443" width="300" height="22" fill="#3B4261" opacity="0.35"/>
<rect x="281" y="443" width="66" height="22" fill="#7AA2F7"><animate attributeName="width" values="66;90;66" keyTimes="0;0.5;1" dur="5s" calcMode="spline" keySplines="0.42 0 0.58 1;0.42 0 0.58 1" repeatCount="indefinite"/></rect>
<rect x="299.5" y="442" width="3" height="24" fill="#0B0D12"/>
<rect x="319.5" y="442" width="3" height="24" fill="#0B0D12"/>
<rect x="339.5" y="442" width="3" height="24" fill="#0B0D12"/>
<rect x="359.5" y="442" width="3" height="24" fill="#0B0D12"/>
<rect x="379.5" y="442" width="3" height="24" fill="#0B0D12"/>
<rect x="399.5" y="442" width="3" height="24" fill="#0B0D12"/>
<rect x="419.5" y="442" width="3" height="24" fill="#0B0D12"/>
<rect x="439.5" y="442" width="3" height="24" fill="#0B0D12"/>
<rect x="459.5" y="442" width="3" height="24" fill="#0B0D12"/>
<rect x="479.5" y="442" width="3" height="24" fill="#0B0D12"/>
<rect x="499.5" y="442" width="3" height="24" fill="#0B0D12"/>
<rect x="519.5" y="442" width="3" height="24" fill="#0B0D12"/>
<rect x="539.5" y="442" width="3" height="24" fill="#0B0D12"/>
<rect x="559.5" y="442" width="3" height="24" fill="#0B0D12"/>
<rect x="579.5" y="442" width="3" height="24" fill="#0B0D12"/>
<text x="598" y="454" font-family="ui-monospace, 'SF Mono', SFMono-Regular, Menlo, Consolas, 'DejaVu Sans Mono', monospace" font-size="28" fill="#C0CAF5" dominant-baseline="central" textLength="51" lengthAdjust="spacingAndGlyphs">22%</text>
<text x="666" y="454" font-family="ui-monospace, 'SF Mono', SFMono-Regular, Menlo, Consolas, 'DejaVu Sans Mono', monospace" font-size="28" fill="#565F89" dominant-baseline="central" textLength="255" lengthAdjust="spacingAndGlyphs">· resets 6d 13h</text>
<text x="1053" y="454" font-family="ui-monospace, 'SF Mono', SFMono-Regular, Menlo, Consolas, 'DejaVu Sans Mono', monospace" font-size="28" fill="#565F89" dominant-baseline="central" textLength="170" lengthAdjust="spacingAndGlyphs">OpenRouter</text>
<text x="1240" y="454" font-family="ui-monospace, 'SF Mono', SFMono-Regular, Menlo, Consolas, 'DejaVu Sans Mono', monospace" font-size="28" fill="#C0CAF5" dominant-baseline="central" textLength="187" lengthAdjust="spacingAndGlyphs">$32.70 left</text>
</svg>
