<svg xmlns="http://www.w3.org/2000/svg" viewBox="0 0 1640 520" width="820" role="img" aria-label="archer">
<title>archer</title>
<defs>
<linearGradient id="wm" gradientUnits="userSpaceOnUse" x1="213" y1="0" x2="1427" y2="0">
<stop offset="0" stop-color="#7AA2F7"/>
<stop offset="1" stop-color="#73DACA"/>
</linearGradient>
</defs>
<rect x="10" y="26" width="1620" height="468" rx="18" fill="#0B0D12" stroke="#26324B" stroke-width="2.5"/>
<rect x="50" y="8" width="156" height="36" rx="8" fill="#0B0D12"/>
<text x="64" y="27" font-family="ui-monospace, 'SF Mono', SFMono-Regular, Menlo, Consolas, 'DejaVu Sans Mono', monospace" font-size="26" fill="#7AA2F7" dominant-baseline="central" textLength="16" lengthAdjust="spacingAndGlyphs">◆</text>
<text x="96" y="27" font-family="ui-monospace, 'SF Mono', SFMono-Regular, Menlo, Consolas, 'DejaVu Sans Mono', monospace" font-size="26" font-weight="bold" fill="#7AA2F7" dominant-baseline="central" textLength="96" lengthAdjust="spacingAndGlyphs">archer</text>
<g>
<g opacity="0.45"><rect x="247" y="104" width="146" height="44" rx="6" fill="none" stroke="url(#wm)" stroke-width="2.5"/><rect x="233" y="138" width="44" height="196" rx="6" fill="none" stroke="url(#wm)" stroke-width="2.5"/><rect x="349" y="138" width="44" height="196" rx="6" fill="none" stroke="url(#wm)" stroke-width="2.5"/><rect x="267" y="230" width="92" height="44" rx="6" fill="none" stroke="url(#wm)" stroke-width="2.5"/><rect x="250" y="107" width="140" height="38" fill="#0B0D12"/><rect x="236" y="141" width="38" height="190" fill="#0B0D12"/><rect x="352" y="141" width="38" height="190" fill="#0B0D12"/><rect x="270" y="233" width="86" height="38" fill="#0B0D12"/></g>
<g opacity="0.8"><rect x="237" y="94" width="146" height="44" rx="6" fill="none" stroke="url(#wm)" stroke-width="2.5"/><rect x="223" y="128" width="44" height="196" rx="6" fill="none" stroke="url(#wm)" stroke-width="2.5"/><rect x="339" y="128" width="44" height="196" rx="6" fill="none" stroke="url(#wm)" stroke-width="2.5"/><rect x="257" y="220" width="92" height="44" rx="6" fill="none" stroke="url(#wm)" stroke-width="2.5"/><rect x="240" y="97" width="140" height="38" fill="#0B0D12"/><rect x="226" y="131" width="38" height="190" fill="#0B0D12"/><rect x="342" y="131" width="38" height="190" fill="#0B0D12"/><rect x="260" y="223" width="86" height="38" fill="#0B0D12"/></g>
<rect x="227" y="84" width="146" height="44" rx="6" fill="url(#wm)"/><rect x="254.95" y="84" width="2.5" height="44" fill="#0B0D12" opacity="0.5"/><rect x="284.15" y="84" width="2.5" height="44" fill="#0B0D12" opacity="0.5"/><rect x="313.35" y="84" width="2.5" height="44" fill="#0B0D12" opacity="0.5"/><rect x="342.55" y="84" width="2.5" height="44" fill="#0B0D12" opacity="0.5"/>
<rect x="213" y="118" width="44" height="196" rx="6" fill="url(#wm)"/><rect x="213" y="155.95" width="44" height="2.5" fill="#0B0D12" opacity="0.5"/><rect x="213" y="195.15" width="44" height="2.5" fill="#0B0D12" opacity="0.5"/><rect x="213" y="234.35" width="44" height="2.5" fill="#0B0D12" opacity="0.5"/><rect x="213" y="273.55" width="44" height="2.5" fill="#0B0D12" opacity="0.5"/>
<rect x="329" y="118" width="44" height="196" rx="6" fill="url(#wm)"/><rect x="329" y="155.95" width="44" height="2.5" fill="#0B0D12" opacity="0.5"/><rect x="329" y="195.15" width="44" height="2.5" fill="#0B0D12" opacity="0.5"/><rect x="329" y="234.35" width="44" height="2.5" fill="#0B0D12" opacity="0.5"/><rect x="329" y="273.55" width="44" height="2.5" fill="#0B0D12" opacity="0.5"/>
<rect x="247" y="210" width="92" height="44" rx="6" fill="url(#wm)"/><rect x="276.42" y="210" width="2.5" height="44" fill="#0B0D12" opacity="0.5"/><rect x="307.08" y="210" width="2.5" height="44" fill="#0B0D12" opacity="0.5"/>
</g>
<g>
<g opacity="0.45"><rect x="455" y="104" width="146" height="44" rx="6" fill="none" stroke="url(#wm)" stroke-width="2.5"/><rect x="441" y="138" width="44" height="196" rx="6" fill="none" stroke="url(#wm)" stroke-width="2.5"/><rect x="557" y="138" width="44" height="102" rx="6" fill="none" stroke="url(#wm)" stroke-width="2.5"/><rect x="475" y="230" width="126" height="44" rx="6" fill="none" stroke="url(#wm)" stroke-width="2.5"/><rect x="501" y="264" width="44" height="42" rx="6" fill="none" stroke="url(#wm)" stroke-width="2.5"/><rect x="535" y="298" width="68" height="36" rx="6" fill="none" stroke="url(#wm)" stroke-width="2.5"/><rect x="458" y="107" width="140" height="38" fill="#0B0D12"/><rect x="444" y="141" width="38" height="190" fill="#0B0D12"/><rect x="560" y="141" width="38" height="96" fill="#0B0D12"/><rect x="478" y="233" width="120" height="38" fill="#0B0D12"/><rect x="504" y="267" width="38" height="36" fill="#0B0D12"/><rect x="538" y="301" width="62" height="30" fill="#0B0D12"/></g>
<g opacity="0.8"><rect x="445" y="94" width="146" height="44" rx="6" fill="none" stroke="url(#wm)" stroke-width="2.5"/><rect x="431" y="128" width="44" height="196" rx="6" fill="none" stroke="url(#wm)" stroke-width="2.5"/><rect x="547" y="128" width="44" height="102" rx="6" fill="none" stroke="url(#wm)" stroke-width="2.5"/><rect x="465" y="220" width="126" height="44" rx="6" fill="none" stroke="url(#wm)" stroke-width="2.5"/><rect x="491" y="254" width="44" height="42" rx="6" fill="none" stroke="url(#wm)" stroke-width="2.5"/><rect x="525" y="288" width="68" height="36" rx="6" fill="none" stroke="url(#wm)" stroke-width="2.5"/><rect x="448" y="97" width="140" height="38" fill="#0B0D12"/><rect x="434" y="131" width="38" height="190" fill="#0B0D12"/><rect x="550" y="131" width="38" height="96" fill="#0B0D12"/><rect x="468" y="223" width="120" height="38" fill="#0B0D12"/><rect x="494" y="257" width="38" height="36" fill="#0B0D12"/><rect x="528" y="291" width="62" height="30" fill="#0B0D12"/></g>
<rect x="435" y="84" width="146" height="44" rx="6" fill="url(#wm)"/><rect x="462.95" y="84" width="2.5" height="44" fill="#0B0D12" opacity="0.5"/><rect x="492.15" y="84" width="2.5" height="44" fill="#0B0D12" opacity="0.5"/><rect x="521.35" y="84" width="2.5" height="44" fill="#0B0D12" opacity="0.5"/><rect x="550.55" y="84" width="2.5" height="44" fill="#0B0D12" opacity="0.5"/>
<rect x="421" y="118" width="44" height="196" rx="6" fill="url(#wm)"/><rect x="421" y="155.95" width="44" height="2.5" fill="#0B0D12" opacity="0.5"/><rect x="421" y="195.15" width="44" height="2.5" fill="#0B0D12" opacity="0.5"/><rect x="421" y="234.35" width="44" height="2.5" fill="#0B0D12" opacity="0.5"/><rect x="421" y="273.55" width="44" height="2.5" fill="#0B0D12" opacity="0.5"/>
<rect x="537" y="118" width="44" height="102" rx="6" fill="url(#wm)"/><rect x="537" y="150.75" width="44" height="2.5" fill="#0B0D12" opacity="0.5"/><rect x="537" y="184.75" width="44" height="2.5" fill="#0B0D12" opacity="0.5"/>
<rect x="455" y="210" width="126" height="44" rx="6" fill="url(#wm)"/><rect x="485.25" y="210" width="2.5" height="44" fill="#0B0D12" opacity="0.5"/><rect x="516.75" y="210" width="2.5" height="44" fill="#0B0D12" opacity="0.5"/><rect x="548.25" y="210" width="2.5" height="44" fill="#0B0D12" opacity="0.5"/>
<rect x="481" y="244" width="44" height="42" rx="6" fill="url(#wm)"/>
<rect x="515" y="278" width="68" height="36" rx="6" fill="url(#wm)"/><rect x="547.75" y="278" width="2.5" height="36" fill="#0B0D12" opacity="0.5"/>
</g>
<g>
<g opacity="0.45"><rect x="663" y="104" width="146" height="44" rx="6" fill="none" stroke="url(#wm)" stroke-width="2.5"/><rect x="649" y="138" width="44" height="162" rx="6" fill="none" stroke="url(#wm)" stroke-width="2.5"/><rect x="671" y="290" width="152" height="44" rx="6" fill="none" stroke="url(#wm)" stroke-width="2.5"/><rect x="666" y="107" width="140" height="38" fill="#0B0D12"/><rect x="652" y="141" width="38" height="156" fill="#0B0D12"/><rect x="674" y="293" width="146" height="38" fill="#0B0D12"/></g>
<g opacity="0.8"><rect x="653" y="94" width="146" height="44" rx="6" fill="none" stroke="url(#wm)" stroke-width="2.5"/><rect x="639" y="128" width="44" height="162" rx="6" fill="none" stroke="url(#wm)" stroke-width="2.5"/><rect x="661" y="280" width="152" height="44" rx="6" fill="none" stroke="url(#wm)" stroke-width="2.5"/><rect x="656" y="97" width="140" height="38" fill="#0B0D12"/><rect x="642" y="131" width="38" height="156" fill="#0B0D12"/><rect x="664" y="283" width="146" height="38" fill="#0B0D12"/></g>
<rect x="643" y="84" width="146" height="44" rx="6" fill="url(#wm)"/><rect x="670.95" y="84" width="2.5" height="44" fill="#0B0D12" opacity="0.5"/><rect x="700.15" y="84" width="2.5" height="44" fill="#0B0D12" opacity="0.5"/><rect x="729.35" y="84" width="2.5" height="44" fill="#0B0D12" opacity="0.5"/><rect x="758.55" y="84" width="2.5" height="44" fill="#0B0D12" opacity="0.5"/>
<rect x="629" y="118" width="44" height="162" rx="6" fill="url(#wm)"/><rect x="629" y="157.25" width="44" height="2.5" fill="#0B0D12" opacity="0.5"/><rect x="629" y="197.75" width="44" height="2.5" fill="#0B0D12" opacity="0.5"/><rect x="629" y="238.25" width="44" height="2.5" fill="#0B0D12" opacity="0.5"/>
<rect x="651" y="270" width="152" height="44" rx="6" fill="url(#wm)"/><rect x="680.15" y="270" width="2.5" height="44" fill="#0B0D12" opacity="0.5"/><rect x="710.55" y="270" width="2.5" height="44" fill="#0B0D12" opacity="0.5"/><rect x="740.95" y="270" width="2.5" height="44" fill="#0B0D12" opacity="0.5"/><rect x="771.35" y="270" width="2.5" height="44" fill="#0B0D12" opacity="0.5"/>
</g>
<g>
<g opacity="0.45"><rect x="857" y="104" width="44" height="230" rx="6" fill="none" stroke="url(#wm)" stroke-width="2.5"/><rect x="973" y="104" width="44" height="230" rx="6" fill="none" stroke="url(#wm)" stroke-width="2.5"/><rect x="891" y="230" width="92" height="44" rx="6" fill="none" stroke="url(#wm)" stroke-width="2.5"/><rect x="860" y="107" width="38" height="224" fill="#0B0D12"/><rect x="976" y="107" width="38" height="224" fill="#0B0D12"/><rect x="894" y="233" width="86" height="38" fill="#0B0D12"/></g>
<g opacity="0.8"><rect x="847" y="94" width="44" height="230" rx="6" fill="none" stroke="url(#wm)" stroke-width="2.5"/><rect x="963" y="94" width="44" height="230" rx="6" fill="none" stroke="url(#wm)" stroke-width="2.5"/><rect x="881" y="220" width="92" height="44" rx="6" fill="none" stroke="url(#wm)" stroke-width="2.5"/><rect x="850" y="97" width="38" height="224" fill="#0B0D12"/><rect x="966" y="97" width="38" height="224" fill="#0B0D12"/><rect x="884" y="223" width="86" height="38" fill="#0B0D12"/></g>
<rect x="837" y="84" width="44" height="230" rx="6" fill="url(#wm)"/><rect x="837" y="121.08" width="44" height="2.5" fill="#0B0D12" opacity="0.5"/><rect x="837" y="159.42" width="44" height="2.5" fill="#0B0D12" opacity="0.5"/><rect x="837" y="197.75" width="44" height="2.5" fill="#0B0D12" opacity="0.5"/><rect x="837" y="236.08" width="44" height="2.5" fill="#0B0D12" opacity="0.5"/><rect x="837" y="274.42" width="44" height="2.5" fill="#0B0D12" opacity="0.5"/>
<rect x="953" y="84" width="44" height="230" rx="6" fill="url(#wm)"/><rect x="953" y="121.08" width="44" height="2.5" fill="#0B0D12" opacity="0.5"/><rect x="953" y="159.42" width="44" height="2.5" fill="#0B0D12" opacity="0.5"/><rect x="953" y="197.75" width="44" height="2.5" fill="#0B0D12" opacity="0.5"/><rect x="953" y="236.08" width="44" height="2.5" fill="#0B0D12" opacity="0.5"/><rect x="953" y="274.42" width="44" height="2.5" fill="#0B0D12" opacity="0.5"/>
<rect x="871" y="210" width="92" height="44" rx="6" fill="url(#wm)"/><rect x="900.42" y="210" width="2.5" height="44" fill="#0B0D12" opacity="0.5"/><rect x="931.08" y="210" width="2.5" height="44" fill="#0B0D12" opacity="0.5"/>
</g>
<g>
<g opacity="0.45"><rect x="1079" y="104" width="146" height="44" rx="6" fill="none" stroke="url(#wm)" stroke-width="2.5"/><rect x="1065" y="138" width="44" height="162" rx="6" fill="none" stroke="url(#wm)" stroke-width="2.5"/><rect x="1099" y="230" width="75" height="44" rx="6" fill="none" stroke="url(#wm)" stroke-width="2.5"/><rect x="1087" y="290" width="152" height="44" rx="6" fill="none" stroke="url(#wm)" stroke-width="2.5"/><rect x="1082" y="107" width="140" height="38" fill="#0B0D12"/><rect x="1068" y="141" width="38" height="156" fill="#0B0D12"/><rect x="1102" y="233" width="69" height="38" fill="#0B0D12"/><rect x="1090" y="293" width="146" height="38" fill="#0B0D12"/></g>
<g opacity="0.8"><rect x="1069" y="94" width="146" height="44" rx="6" fill="none" stroke="url(#wm)" stroke-width="2.5"/><rect x="1055" y="128" width="44" height="162" rx="6" fill="none" stroke="url(#wm)" stroke-width="2.5"/><rect x="1089" y="220" width="75" height="44" rx="6" fill="none" stroke="url(#wm)" stroke-width="2.5"/><rect x="1077" y="280" width="152" height="44" rx="6" fill="none" stroke="url(#wm)" stroke-width="2.5"/><rect x="1072" y="97" width="140" height="38" fill="#0B0D12"/><rect x="1058" y="131" width="38" height="156" fill="#0B0D12"/><rect x="1092" y="223" width="69" height="38" fill="#0B0D12"/><rect x="1080" y="283" width="146" height="38" fill="#0B0D12"/></g>
<rect x="1059" y="84" width="146" height="44" rx="6" fill="url(#wm)"/><rect x="1086.95" y="84" width="2.5" height="44" fill="#0B0D12" opacity="0.5"/><rect x="1116.15" y="84" width="2.5" height="44" fill="#0B0D12" opacity="0.5"/><rect x="1145.35" y="84" width="2.5" height="44" fill="#0B0D12" opacity="0.5"/><rect x="1174.55" y="84" width="2.5" height="44" fill="#0B0D12" opacity="0.5"/>
<rect x="1045" y="118" width="44" height="162" rx="6" fill="url(#wm)"/><rect x="1045" y="157.25" width="44" height="2.5" fill="#0B0D12" opacity="0.5"/><rect x="1045" y="197.75" width="44" height="2.5" fill="#0B0D12" opacity="0.5"/><rect x="1045" y="238.25" width="44" height="2.5" fill="#0B0D12" opacity="0.5"/>
<rect x="1079" y="210" width="75" height="44" rx="6" fill="url(#wm)"/><rect x="1115.25" y="210" width="2.5" height="44" fill="#0B0D12" opacity="0.5"/>
<rect x="1067" y="270" width="152" height="44" rx="6" fill="url(#wm)"/><rect x="1096.15" y="270" width="2.5" height="44" fill="#0B0D12" opacity="0.5"/><rect x="1126.55" y="270" width="2.5" height="44" fill="#0B0D12" opacity="0.5"/><rect x="1156.95" y="270" width="2.5" height="44" fill="#0B0D12" opacity="0.5"/><rect x="1187.35" y="270" width="2.5" height="44" fill="#0B0D12" opacity="0.5"/>
</g>
<g>
<g opacity="0.45"><rect x="1287" y="104" width="146" height="44" rx="6" fill="none" stroke="url(#wm)" stroke-width="2.5"/><rect x="1273" y="138" width="44" height="196" rx="6" fill="none" stroke="url(#wm)" stroke-width="2.5"/><rect x="1389" y="138" width="44" height="102" rx="6" fill="none" stroke="url(#wm)" stroke-width="2.5"/><rect x="1307" y="230" width="126" height="44" rx="6" fill="none" stroke="url(#wm)" stroke-width="2.5"/><rect x="1333" y="264" width="44" height="42" rx="6" fill="none" stroke="url(#wm)" stroke-width="2.5"/><rect x="1367" y="298" width="68" height="36" rx="6" fill="none" stroke="url(#wm)" stroke-width="2.5"/><rect x="1290" y="107" width="140" height="38" fill="#0B0D12"/><rect x="1276" y="141" width="38" height="190" fill="#0B0D12"/><rect x="1392" y="141" width="38" height="96" fill="#0B0D12"/><rect x="1310" y="233" width="120" height="38" fill="#0B0D12"/><rect x="1336" y="267" width="38" height="36" fill="#0B0D12"/><rect x="1370" y="301" width="62" height="30" fill="#0B0D12"/></g>
<g opacity="0.8"><rect x="1277" y="94" width="146" height="44" rx="6" fill="none" stroke="url(#wm)" stroke-width="2.5"/><rect x="1263" y="128" width="44" height="196" rx="6" fill="none" stroke="url(#wm)" stroke-width="2.5"/><rect x="1379" y="128" width="44" height="102" rx="6" fill="none" stroke="url(#wm)" stroke-width="2.5"/><rect x="1297" y="220" width="126" height="44" rx="6" fill="none" stroke="url(#wm)" stroke-width="2.5"/><rect x="1323" y="254" width="44" height="42" rx="6" fill="none" stroke="url(#wm)" stroke-width="2.5"/><rect x="1357" y="288" width="68" height="36" rx="6" fill="none" stroke="url(#wm)" stroke-width="2.5"/><rect x="1280" y="97" width="140" height="38" fill="#0B0D12"/><rect x="1266" y="131" width="38" height="190" fill="#0B0D12"/><rect x="1382" y="131" width="38" height="96" fill="#0B0D12"/><rect x="1300" y="223" width="120" height="38" fill="#0B0D12"/><rect x="1326" y="257" width="38" height="36" fill="#0B0D12"/><rect x="1360" y="291" width="62" height="30" fill="#0B0D12"/></g>
<rect x="1267" y="84" width="146" height="44" rx="6" fill="url(#wm)"/><rect x="1294.95" y="84" width="2.5" height="44" fill="#0B0D12" opacity="0.5"/><rect x="1324.15" y="84" width="2.5" height="44" fill="#0B0D12" opacity="0.5"/><rect x="1353.35" y="84" width="2.5" height="44" fill="#0B0D12" opacity="0.5"/><rect x="1382.55" y="84" width="2.5" height="44" fill="#0B0D12" opacity="0.5"/>
<rect x="1253" y="118" width="44" height="196" rx="6" fill="url(#wm)"/><rect x="1253" y="155.95" width="44" height="2.5" fill="#0B0D12" opacity="0.5"/><rect x="1253" y="195.15" width="44" height="2.5" fill="#0B0D12" opacity="0.5"/><rect x="1253" y="234.35" width="44" height="2.5" fill="#0B0D12" opacity="0.5"/><rect x="1253" y="273.55" width="44" height="2.5" fill="#0B0D12" opacity="0.5"/>
<rect x="1369" y="118" width="44" height="102" rx="6" fill="url(#wm)"/><rect x="1369" y="150.75" width="44" height="2.5" fill="#0B0D12" opacity="0.5"/><rect x="1369" y="184.75" width="44" height="2.5" fill="#0B0D12" opacity="0.5"/>
<rect x="1287" y="210" width="126" height="44" rx="6" fill="url(#wm)"/><rect x="1317.25" y="210" width="2.5" height="44" fill="#0B0D12" opacity="0.5"/><rect x="1348.75" y="210" width="2.5" height="44" fill="#0B0D12" opacity="0.5"/><rect x="1380.25" y="210" width="2.5" height="44" fill="#0B0D12" opacity="0.5"/>
<rect x="1313" y="244" width="44" height="42" rx="6" fill="url(#wm)"/>
<rect x="1347" y="278" width="68" height="36" rx="6" fill="url(#wm)"/><rect x="1379.75" y="278" width="2.5" height="36" fill="#0B0D12" opacity="0.5"/>
</g>
<text x="213" y="398" font-family="ui-monospace, 'SF Mono', SFMono-Regular, Menlo, Consolas, 'DejaVu Sans Mono', monospace" font-size="28" fill="#9ECE6A" dominant-baseline="central" textLength="17" lengthAdjust="spacingAndGlyphs">✓</text>
<text x="247" y="398" font-family="ui-monospace, 'SF Mono', SFMono-Regular, Menlo, Consolas, 'DejaVu Sans Mono', monospace" font-size="28" fill="#C0CAF5" dominant-baseline="central" textLength="85" lengthAdjust="spacingAndGlyphs">scope</text>
<text x="349" y="398" font-family="ui-monospace, 'SF Mono', SFMono-Regular, Menlo, Consolas, 'DejaVu Sans Mono', monospace" font-size="28" fill="#3B4261" dominant-baseline="central" textLength="17" lengthAdjust="spacingAndGlyphs">·</text>
<text x="383" y="398" font-family="ui-monospace, 'SF Mono', SFMono-Regular, Menlo, Consolas, 'DejaVu Sans Mono', monospace" font-size="28" fill="#9ECE6A" dominant-baseline="central" textLength="17" lengthAdjust="spacingAndGlyphs">✓</text>
<text x="417" y="398" font-family="ui-monospace, 'SF Mono', SFMono-Regular, Menlo, Consolas, 'DejaVu Sans Mono', monospace" font-size="28" fill="#C0CAF5" dominant-baseline="central" textLength="153" lengthAdjust="spacingAndGlyphs">implement</text>
<text x="587" y="398" font-family="ui-monospace, 'SF Mono', SFMono-Regular, Menlo, Consolas, 'DejaVu Sans Mono', monospace" font-size="28" fill="#3B4261" dominant-baseline="central" textLength="17" lengthAdjust="spacingAndGlyphs">·</text>
<g><text x="621" y="398" font-family="ui-monospace, 'SF Mono', SFMono-Regular, Menlo, Consolas, 'DejaVu Sans Mono', monospace" font-size="28" fill="#7AA2F7" dominant-baseline="central" opacity="0" textLength="17" lengthAdjust="spacingAndGlyphs">⠋<animate attributeName="opacity" dur="1s" repeatCount="indefinite" calcMode="discrete" values="1;0" keyTimes="0;0.10"/></text><text x="621" y="398" font-family="ui-monospace, 'SF Mono', SFMono-Regular, Menlo, Consolas, 'DejaVu Sans Mono', monospace" font-size="28" fill="#7AA2F7" dominant-baseline="central" opacity="0" textLength="17" lengthAdjust="spacingAndGlyphs">⠙<animate attributeName="opacity" dur="1s" repeatCount="indefinite" calcMode="discrete" values="0;1;0" keyTimes="0;0.10;0.20"/></text><text x="621" y="398" font-family="ui-monospace, 'SF Mono', SFMono-Regular, Menlo, Consolas, 'DejaVu Sans Mono', monospace" font-size="28" fill="#7AA2F7" dominant-baseline="central" opacity="1" textLength="17" lengthAdjust="spacingAndGlyphs">⠹<animate attributeName="opacity" dur="1s" repeatCount="indefinite" calcMode="discrete" values="0;1;0" keyTimes="0;0.20;0.30"/></text><text x="621" y="398" font-family="ui-monospace, 'SF Mono', SFMono-Regular, Menlo, Consolas, 'DejaVu Sans Mono', monospace" font-size="28" fill="#7AA2F7" dominant-baseline="central" opacity="0" textLength="17" lengthAdjust="spacingAndGlyphs">⠸<animate attributeName="opacity" dur="1s" repeatCount="indefinite" calcMode="discrete" values="0;1;0" keyTimes="0;0.30;0.40"/></text><text x="621" y="398" font-family="ui-monospace, 'SF Mono', SFMono-Regular, Menlo, Consolas, 'DejaVu Sans Mono', monospace" font-size="28" fill="#7AA2F7" dominant-baseline="central" opacity="0" textLength="17" lengthAdjust="spacingAndGlyphs">⠼<animate attributeName="opacity" dur="1s" repeatCount="indefinite" calcMode="discrete" values="0;1;0" keyTimes="0;0.40;0.50"/></text><text x="621" y="398" font-family="ui-monospace, 'SF Mono', SFMono-Regular, Menlo, Consolas, 'DejaVu Sans Mono', monospace" font-size="28" fill="#7AA2F7" dominant-baseline="central" opacity="0" textLength="17" lengthAdjust="spacingAndGlyphs">⠴<animate attributeName="opacity" dur="1s" repeatCount="indefinite" calcMode="discrete" values="0;1;0" keyTimes="0;0.50;0.60"/></text><text x="621" y="398" font-family="ui-monospace, 'SF Mono', SFMono-Regular, Menlo, Consolas, 'DejaVu Sans Mono', monospace" font-size="28" fill="#7AA2F7" dominant-baseline="central" opacity="0" textLength="17" lengthAdjust="spacingAndGlyphs">⠦<animate attributeName="opacity" dur="1s" repeatCount="indefinite" calcMode="discrete" values="0;1;0" keyTimes="0;0.60;0.70"/></text><text x="621" y="398" font-family="ui-monospace, 'SF Mono', SFMono-Regular, Menlo, Consolas, 'DejaVu Sans Mono', monospace" font-size="28" fill="#7AA2F7" dominant-baseline="central" opacity="0" textLength="17" lengthAdjust="spacingAndGlyphs">⠧<animate attributeName="opacity" dur="1s" repeatCount="indefinite" calcMode="discrete" values="0;1;0" keyTimes="0;0.70;0.80"/></text><text x="621" y="398" font-family="ui-monospace, 'SF Mono', SFMono-Regular, Menlo, Consolas, 'DejaVu Sans Mono', monospace" font-size="28" fill="#7AA2F7" dominant-baseline="central" opacity="0" textLength="17" lengthAdjust="spacingAndGlyphs">⠇<animate attributeName="opacity" dur="1s" repeatCount="indefinite" calcMode="discrete" values="0;1;0" keyTimes="0;0.80;0.90"/></text><text x="621" y="398" font-family="ui-monospace, 'SF Mono', SFMono-Regular, Menlo, Consolas, 'DejaVu Sans Mono', monospace" font-size="28" fill="#7AA2F7" dominant-baseline="central" opacity="0" textLength="17" lengthAdjust="spacingAndGlyphs">⠏<animate attributeName="opacity" dur="1s" repeatCount="indefinite" calcMode="discrete" values="0;1" keyTimes="0;0.90"/></text></g>
<text x="655" y="398" font-family="ui-monospace, 'SF Mono', SFMono-Regular, Menlo, Consolas, 'DejaVu Sans Mono', monospace" font-size="28" fill="#7AA2F7" font-weight="bold" dominant-baseline="central" textLength="102" lengthAdjust="spacingAndGlyphs">review</text>
<text x="774" y="398" font-family="ui-monospace, 'SF Mono', SFMono-Regular, Menlo, Consolas, 'DejaVu Sans Mono', monospace" font-size="28" fill="#3B4261" dominant-baseline="central" textLength="17" lengthAdjust="spacingAndGlyphs">·</text>
<text x="808" y="398" font-family="ui-monospace, 'SF Mono', SFMono-Regular, Menlo, Consolas, 'DejaVu Sans Mono', monospace" font-size="28" fill="#565F89" dominant-baseline="central" textLength="17" lengthAdjust="spacingAndGlyphs">○</text>
<text x="842" y="398" font-family="ui-monospace, 'SF Mono', SFMono-Regular, Menlo, Consolas, 'DejaVu Sans Mono', monospace" font-size="28" fill="#565F89" dominant-baseline="central" textLength="102" lengthAdjust="spacingAndGlyphs">report</text>
<text x="213" y="454" font-family="ui-monospace, 'SF Mono', SFMono-Regular, Menlo, Consolas, 'DejaVu Sans Mono', monospace" font-size="28" fill="#565F89" dominant-baseline="central" textLength="51" lengthAdjust="spacingAndGlyphs">GPT</text>
<rect x="281" y="443" width="300" height="22" fill="#3B4261" opacity="0.35"/>
<rect x="281" y="443" width="66" height="22" fill="#7AA2F7"><animate attributeName="width" values="66;90;66" keyTimes="0;0.5;1" dur="5s" calcMode="spline" keySplines="0.42 0 0.58 1;0.42 0 0.58 1" repeatCount="indefinite"/></rect>
<rect x="299.5" y="442" width="3" height="24" fill="#0B0D12"/>
<rect x="319.5" y="442" width="3" height="24" fill="#0B0D12"/>
<rect x="339.5" y="442" width="3" height="24" fill="#0B0D12"/>
<rect x="359.5" y="442" width="3" height="24" fill="#0B0D12"/>
<rect x="379.5" y="442" width="3" height="24" fill="#0B0D12"/>
<rect x="399.5" y="442" width="3" height="24" fill="#0B0D12"/>
<rect x="419.5" y="442" width="3" height="24" fill="#0B0D12"/>
<rect x="439.5" y="442" width="3" height="24" fill="#0B0D12"/>
<rect x="459.5" y="442" width="3" height="24" fill="#0B0D12"/>
<rect x="479.5" y="442" width="3" height="24" fill="#0B0D12"/>
<rect x="499.5" y="442" width="3" height="24" fill="#0B0D12"/>
<rect x="519.5" y="442" width="3" height="24" fill="#0B0D12"/>
<rect x="539.5" y="442" width="3" height="24" fill="#0B0D12"/>
<rect x="559.5" y="442" width="3" height="24" fill="#0B0D12"/>
<text x="598" y="454" font-family="ui-monospace, 'SF Mono', SFMono-Regular, Menlo, Consolas, 'DejaVu Sans Mono', monospace" font-size="28" fill="#C0CAF5" dominant-baseline="central" textLength="51" lengthAdjust="spacingAndGlyphs">22%</text>
<text x="666" y="454" font-family="ui-monospace, 'SF Mono', SFMono-Regular, Menlo, Consolas, 'DejaVu Sans Mono', monospace" font-size="28" fill="#565F89" dominant-baseline="central" textLength="255" lengthAdjust="spacingAndGlyphs">· resets 6d 13h</text>
<text x="1053" y="454" font-family="ui-monospace, 'SF Mono', SFMono-Regular, Menlo, Consolas, 'DejaVu Sans Mono', monospace" font-size="28" fill="#565F89" dominant-baseline="central" textLength="170" lengthAdjust="spacingAndGlyphs">OpenRouter</text>
<text x="1240" y="454" font-family="ui-monospace, 'SF Mono', SFMono-Regular, Menlo, Consolas, 'DejaVu Sans Mono', monospace" font-size="28" fill="#C0CAF5" dominant-baseline="central" textLength="187" lengthAdjust="spacingAndGlyphs">$32.70 left</text>
</svg>
